<svg aria-roledescription="er" role="graphics-document document" viewBox="0 0 464.29083251953125 664.0625" height="664.0625" xmlns="http://www.w3.org/2000/svg" width="464.29083251953125" id="tmpMermaidElement6717"><style>#tmpMermaidElement {background: white;}#tmpMermaidElement6717{font-family:"trebuchet ms",verdana,arial,sans-serif;font-size:16px;fill:#333;}#tmpMermaidElement6717 .error-icon{fill:#552222;}#tmpMermaidElement6717 .error-text{fill:#552222;stroke:#552222;}#tmpMermaidElement6717 .edge-thickness-normal{stroke-width:2px;}#tmpMermaidElement6717 .edge-thickness-thick{stroke-width:3.5px;}#tmpMermaidElement6717 .edge-pattern-solid{stroke-dasharray:0;}#tmpMermaidElement6717 .edge-pattern-dashed{stroke-dasharray:3;}#tmpMermaidElement6717 .edge-pattern-dotted{stroke-dasharray:2;}#tmpMermaidElement6717 .marker{fill:#333333;stroke:#333333;}#tmpMermaidElement6717 .marker.cross{stroke:#333333;}#tmpMermaidElement6717 svg{font-family:"trebuchet ms",verdana,arial,sans-serif;font-size:16px;}#tmpMermaidElement6717 .entityBox{fill:#ECECFF;stroke:#9370DB;}#tmpMermaidElement6717 .attributeBoxOdd{fill:#ffffff;stroke:#9370DB;}#tmpMermaidElement6717 .attributeBoxEven{fill:#f2f2f2;stroke:#9370DB;}#tmpMermaidElement6717 .relationshipLabelBox{fill:hsl(80, 100%, 96.2745098039%);opacity:0.7;background-color:hsl(80, 100%, 96.2745098039%);}#tmpMermaidElement6717 .relationshipLabelBox rect{opacity:0.5;}#tmpMermaidElement6717 .relationshipLine{stroke:#333333;}#tmpMermaidElement6717 .entityTitleText{text-anchor:middle;font-size:18px;fill:#333;}#tmpMermaidElement6717 #MD_PARENT_START{fill:#f5f5f5!important;stroke:#333333!important;stroke-width:1;}#tmpMermaidElement6717 #MD_PARENT_END{fill:#f5f5f5!important;stroke:#333333!important;stroke-width:1;}#tmpMermaidElement6717 :root{--mermaid-font-family:"trebuchet ms",verdana,arial,sans-serif;}</style><g></g><defs><marker orient="auto" markerHeight="240" markerWidth="190" refY="7" refX="0" id="MD_PARENT_START"><path d="M 18,7 L9,13 L1,7 L9,1 Z"></path></marker></defs><defs><marker orient="auto" markerHeight="28" markerWidth="20" refY="7" refX="19" id="MD_PARENT_END"><path d="M 18,7 L9,13 L1,7 L9,1 Z"></path></marker></defs><defs><marker orient="auto" markerHeight="18" markerWidth="18" refY="9" refX="0" id="ONLY_ONE_START"><path d="M9,0 L9,18 M15,0 L15,18" fill="none" stroke="gray"></path></marker></defs><defs><marker orient="auto" markerHeight="18" markerWidth="18" refY="9" refX="18" id="ONLY_ONE_END"><path d="M3,0 L3,18 M9,0 L9,18" fill="none" stroke="gray"></path></marker></defs><defs><marker orient="auto" markerHeight="18" markerWidth="30" refY="9" refX="0" id="ZERO_OR_ONE_START"><circle r="6" cy="9" cx="21" fill="white" stroke="gray"></circle><path d="M9,0 L9,18" fill="none" stroke="gray"></path></marker></defs><defs><marker orient="auto" markerHeight="18" markerWidth="30" refY="9" refX="30" id="ZERO_OR_ONE_END"><circle r="6" cy="9" cx="9" fill="white" stroke="gray"></circle><path d="M21,0 L21,18" fill="none" stroke="gray"></path></marker></defs><defs><marker orient="auto" markerHeight="36" markerWidth="45" refY="18" refX="18" id="ONE_OR_MORE_START"><path d="M0,18 Q 18,0 36,18 Q 18,36 0,18 M42,9 L42,27" fill="none" stroke="gray"></path></marker></defs><defs><marker orient="auto" markerHeight="36" markerWidth="45" refY="18" refX="27" id="ONE_OR_MORE_END"><path d="M3,9 L3,27 M9,18 Q27,0 45,18 Q27,36 9,18" fill="none" stroke="gray"></path></marker></defs><defs><marker orient="auto" markerHeight="36" markerWidth="57" refY="18" refX="18" id="ZERO_OR_MORE_START"><circle r="6" cy="18" cx="48" fill="white" stroke="gray"></circle><path d="M0,18 Q18,0 36,18 Q18,36 0,18" fill="none" stroke="gray"></path></marker></defs><defs><marker orient="auto" markerHeight="36" markerWidth="57" refY="18" refX="39" id="ZERO_OR_MORE_END"><circle r="6" cy="18" cx="9" fill="white" stroke="gray"></circle><path d="M21,18 Q39,0 57,18 Q39,36 21,18" fill="none" stroke="gray"></path></marker></defs><path style="stroke: gray; fill: none;" marker-start="url(#ONLY_ONE_START)" marker-end="url(#ZERO_OR_MORE_END)" d="M227.142,119.016L227.142,127.349C227.142,135.682,227.142,152.349,227.142,169.016C227.142,185.682,227.142,202.349,227.142,210.682L227.142,219.016" class="er relationshipLine"></path><path style="stroke: gray; fill: none;" marker-start="url(#ONLY_ONE_START)" marker-end="url(#ZERO_OR_MORE_END)" d="M170.961,294.031L158.479,302.365C145.997,310.698,121.033,327.365,108.551,344.031C96.069,360.698,96.069,377.365,96.069,385.698L96.069,394.031" class="er relationshipLine"></path><path style="stroke: gray; fill: none;" marker-start="url(#ONLY_ONE_START)" marker-end="url(#ZERO_OR_MORE_END)" d="M283.323,294.031L295.805,302.365C308.287,310.698,333.251,327.365,345.733,344.031C358.215,360.698,358.215,377.365,358.215,385.698L358.215,394.031" class="er relationshipLine"></path><path style="stroke: gray; fill: none;" marker-start="url(#ONLY_ONE_START)" marker-end="url(#ZERO_OR_MORE_END)" d="M96.069,469.047L96.069,477.38C96.069,485.714,96.069,502.38,96.069,519.047C96.069,535.714,96.069,552.38,96.069,560.714L96.069,569.047" class="er relationshipLine"></path><g transform="translate(167.67962646484375,20 )" id="entity-USER-6e7e2962-0c6f-577d-a7fd-2ce3a0cfd2c8"><rect height="99.015625" width="118.92465209960938" y="0" x="0" class="er entityBox"></rect><text style="dominant-baseline: middle; text-anchor: middle; font-size: 12px;" transform="translate(59.46232604980469,13.5078125)" y="0" x="0" id="text-entity-USER-6e7e2962-0c6f-577d-a7fd-2ce3a0cfd2c8" class="er entityLabel">USER</text><rect height="24" width="37.4693603515625" y="27.015625" x="0" class="er attributeBoxOdd"></rect><text style="dominant-baseline: middle; font-size: 10.2px;" transform="translate(5,39.015625)" y="0" x="0" id="text-entity-USER-6e7e2962-0c6f-577d-a7fd-2ce3a0cfd2c8-attr-1-type" class="er entityLabel">string</text><rect height="24" width="58.326873779296875" y="27.015625" x="37.4693603515625" class="er attributeBoxOdd"></rect><text style="dominant-baseline: middle; font-size: 10.2px;" transform="translate(42.4693603515625,39.015625)" y="0" x="0" id="text-entity-USER-6e7e2962-0c6f-577d-a7fd-2ce3a0cfd2c8-attr-1-name" class="er entityLabel">username</text><rect height="24" width="23.12841796875" y="27.015625" x="95.79623413085938" class="er attributeBoxOdd"></rect><text style="dominant-baseline: middle; font-size: 10.2px;" transform="translate(100.79623413085938,39.015625)" y="0" x="0" id="text-entity-USER-6e7e2962-0c6f-577d-a7fd-2ce3a0cfd2c8-attr-1-key" class="er entityLabel">PK</text><rect height="24" width="37.4693603515625" y="51.015625" x="0" class="er attributeBoxEven"></rect><text style="dominant-baseline: middle; font-size: 10.2px;" transform="translate(5,63.015625)" y="0" x="0" id="text-entity-USER-6e7e2962-0c6f-577d-a7fd-2ce3a0cfd2c8-attr-2-type" class="er entityLabel">string</text><rect height="24" width="58.326873779296875" y="51.015625" x="37.4693603515625" class="er attributeBoxEven"></rect><text style="dominant-baseline: middle; font-size: 10.2px;" transform="translate(42.4693603515625,63.015625)" y="0" x="0" id="text-entity-USER-6e7e2962-0c6f-577d-a7fd-2ce3a0cfd2c8-attr-2-name" class="er entityLabel">password</text><rect height="24" width="23.12841796875" y="51.015625" x="95.79623413085938" class="er attributeBoxEven"></rect><text style="dominant-baseline: middle; font-size: 10.2px;" transform="translate(100.79623413085938,63.015625)" y="0" x="0" id="text-entity-USER-6e7e2962-0c6f-577d-a7fd-2ce3a0cfd2c8-attr-2-key" class="er entityLabel"></text><rect height="24" width="37.4693603515625" y="75.015625" x="0" class="er attributeBoxOdd"></rect><text style="dominant-baseline: middle; font-size: 10.2px;" transform="translate(5,87.015625)" y="0" x="0" id="text-entity-USER-6e7e2962-0c6f-577d-a7fd-2ce3a0cfd2c8-attr-3-type" class="er entityLabel">string</text><rect height="24" width="58.326873779296875" y="75.015625" x="37.4693603515625" class="er attributeBoxOdd"></rect><text style="dominant-baseline: middle; font-size: 10.2px;" transform="translate(42.4693603515625,87.015625)" y="0" x="0" id="text-entity-USER-6e7e2962-0c6f-577d-a7fd-2ce3a0cfd2c8-attr-3-name" class="er entityLabel">email</text><rect height="24" width="23.12841796875" y="75.015625" x="95.79623413085938" class="er attributeBoxOdd"></rect><text style="dominant-baseline: middle; font-size: 10.2px;" transform="translate(100.79623413085938,87.015625)" y="0" x="0" id="text-entity-USER-6e7e2962-0c6f-577d-a7fd-2ce3a0cfd2c8-attr-3-key" class="er entityLabel"></text></g><g transform="translate(165.2180633544922,219.015625 )" id="entity-ROLE-47fb4726-62fa-56f9-a62b-070f27ba78ef"><rect height="75.015625" width="123.8477783203125" y="0" x="0" class="er entityBox"></rect><text style="dominant-baseline: middle; text-anchor: middle; font-size: 12px;" transform="translate(61.92388916015625,13.5078125)" y="0" x="0" id="text-entity-ROLE-47fb4726-62fa-56f9-a62b-070f27ba78ef" class="er entityLabel">ROLE</text><rect height="24" width="37.4693603515625" y="27.015625" x="0" class="er attributeBoxOdd"></rect><text style="dominant-baseline: middle; font-size: 10.2px;" transform="translate(5,39.015625)" y="0" x="0" id="text-entity-ROLE-47fb4726-62fa-56f9-a62b-070f27ba78ef-attr-1-type" class="er entityLabel">string</text><rect height="24" width="63.25" y="27.015625" x="37.4693603515625" class="er attributeBoxOdd"></rect><text style="dominant-baseline: middle; font-size: 10.2px;" transform="translate(42.4693603515625,39.015625)" y="0" x="0" id="text-entity-ROLE-47fb4726-62fa-56f9-a62b-070f27ba78ef-attr-1-name" class="er entityLabel">roleName</text><rect height="24" width="23.12841796875" y="27.015625" x="100.7193603515625" class="er attributeBoxOdd"></rect><text style="dominant-baseline: middle; font-size: 10.2px;" transform="translate(105.7193603515625,39.015625)" y="0" x="0" id="text-entity-ROLE-47fb4726-62fa-56f9-a62b-070f27ba78ef-attr-1-key" class="er entityLabel">PK</text><rect height="24" width="37.4693603515625" y="51.015625" x="0" class="er attributeBoxEven"></rect><text style="dominant-baseline: middle; font-size: 10.2px;" transform="translate(5,63.015625)" y="0" x="0" id="text-entity-ROLE-47fb4726-62fa-56f9-a62b-070f27ba78ef-attr-2-type" class="er entityLabel">string</text><rect height="24" width="63.25" y="51.015625" x="37.4693603515625" class="er attributeBoxEven"></rect><text style="dominant-baseline: middle; font-size: 10.2px;" transform="translate(42.4693603515625,63.015625)" y="0" x="0" id="text-entity-ROLE-47fb4726-62fa-56f9-a62b-070f27ba78ef-attr-2-name" class="er entityLabel">description</text><rect height="24" width="23.12841796875" y="51.015625" x="100.7193603515625" class="er attributeBoxEven"></rect><text style="dominant-baseline: middle; font-size: 10.2px;" transform="translate(105.7193603515625,63.015625)" y="0" x="0" id="text-entity-ROLE-47fb4726-62fa-56f9-a62b-070f27ba78ef-attr-2-key" class="er entityLabel"></text></g><g transform="translate(20,394.03125 )" id="entity-PERMISSION-82434851-04aa-5f41-9ce4-f60af71b0445"><rect height="75.015625" width="152.13848876953125" y="0" x="0" class="er entityBox"></rect><text style="dominant-baseline: middle; text-anchor: middle; font-size: 12px;" transform="translate(76.06924438476562,13.5078125)" y="0" x="0" id="text-entity-PERMISSION-82434851-04aa-5f41-9ce4-f60af71b0445" class="er entityLabel">PERMISSION</text><rect height="24" width="37.4693603515625" y="27.015625" x="0" class="er attributeBoxOdd"></rect><text style="dominant-baseline: middle; font-size: 10.2px;" transform="translate(5,39.015625)" y="0" x="0" id="text-entity-PERMISSION-82434851-04aa-5f41-9ce4-f60af71b0445-attr-1-type" class="er entityLabel">string</text><rect height="24" width="91.54071044921875" y="27.015625" x="37.4693603515625" class="er attributeBoxOdd"></rect><text style="dominant-baseline: middle; font-size: 10.2px;" transform="translate(42.4693603515625,39.015625)" y="0" x="0" id="text-entity-PERMISSION-82434851-04aa-5f41-9ce4-f60af71b0445-attr-1-name" class="er entityLabel">permissionName</text><rect height="24" width="23.12841796875" y="27.015625" x="129.01007080078125" class="er attributeBoxOdd"></rect><text style="dominant-baseline: middle; font-size: 10.2px;" transform="translate(134.01007080078125,39.015625)" y="0" x="0" id="text-entity-PERMISSION-82434851-04aa-5f41-9ce4-f60af71b0445-attr-1-key" class="er entityLabel">PK</text><rect height="24" width="37.4693603515625" y="51.015625" x="0" class="er attributeBoxEven"></rect><text style="dominant-baseline: middle; font-size: 10.2px;" transform="translate(5,63.015625)" y="0" x="0" id="text-entity-PERMISSION-82434851-04aa-5f41-9ce4-f60af71b0445-attr-2-type" class="er entityLabel">string</text><rect height="24" width="91.54071044921875" y="51.015625" x="37.4693603515625" class="er attributeBoxEven"></rect><text style="dominant-baseline: middle; font-size: 10.2px;" transform="translate(42.4693603515625,63.015625)" y="0" x="0" id="text-entity-PERMISSION-82434851-04aa-5f41-9ce4-f60af71b0445-attr-2-name" class="er entityLabel">description</text><rect height="24" width="23.12841796875" y="51.015625" x="129.01007080078125" class="er attributeBoxEven"></rect><text style="dominant-baseline: middle; font-size: 10.2px;" transform="translate(134.01007080078125,63.015625)" y="0" x="0" id="text-entity-PERMISSION-82434851-04aa-5f41-9ce4-f60af71b0445-attr-2-key" class="er entityLabel"></text></g><g transform="translate(272.13848876953125,394.03125 )" id="entity-USERROLEASSIGNMENT-064743e5-459e-5a10-895f-a3f94ea5d0bb"><rect height="75.015625" width="172.15234375" y="0" x="0" class="er entityBox"></rect><text style="dominant-baseline: middle; text-anchor: middle; font-size: 12px;" transform="translate(86.076171875,13.5078125)" y="0" x="0" id="text-entity-USERROLEASSIGNMENT-064743e5-459e-5a10-895f-a3f94ea5d0bb" class="er entityLabel">USER-ROLE-ASSIGNMENT</text><rect height="24" width="55.50209554036458" y="27.015625" x="0" class="er attributeBoxOdd"></rect><text style="dominant-baseline: middle; font-size: 10.2px;" transform="translate(5,39.015625)" y="0" x="0" id="text-entity-USERROLEASSIGNMENT-064743e5-459e-5a10-895f-a3f94ea5d0bb-attr-1-type" class="er entityLabel">string</text><rect height="24" width="76.35960896809895" y="27.015625" x="55.50209554036458" class="er attributeBoxOdd"></rect><text style="dominant-baseline: middle; font-size: 10.2px;" transform="translate(60.50209554036458,39.015625)" y="0" x="0" id="text-entity-USERROLEASSIGNMENT-064743e5-459e-5a10-895f-a3f94ea5d0bb-attr-1-name" class="er entityLabel">username</text><rect height="24" width="40.290639241536454" y="27.015625" x="131.86170450846353" class="er attributeBoxOdd"></rect><text style="dominant-baseline: middle; font-size: 10.2px;" transform="translate(136.86170450846353,39.015625)" y="0" x="0" id="text-entity-USERROLEASSIGNMENT-064743e5-459e-5a10-895f-a3f94ea5d0bb-attr-1-key" class="er entityLabel">FK</text><rect height="24" width="55.50209554036458" y="51.015625" x="0" class="er attributeBoxEven"></rect><text style="dominant-baseline: middle; font-size: 10.2px;" transform="translate(5,63.015625)" y="0" x="0" id="text-entity-USERROLEASSIGNMENT-064743e5-459e-5a10-895f-a3f94ea5d0bb-attr-2-type" class="er entityLabel">string</text><rect height="24" width="76.35960896809895" y="51.015625" x="55.50209554036458" class="er attributeBoxEven"></rect><text style="dominant-baseline: middle; font-size: 10.2px;" transform="translate(60.50209554036458,63.015625)" y="0" x="0" id="text-entity-USERROLEASSIGNMENT-064743e5-459e-5a10-895f-a3f94ea5d0bb-attr-2-name" class="er entityLabel">roleName</text><rect height="24" width="40.290639241536454" y="51.015625" x="131.86170450846353" class="er attributeBoxEven"></rect><text style="dominant-baseline: middle; font-size: 10.2px;" transform="translate(136.86170450846353,63.015625)" y="0" x="0" id="text-entity-USERROLEASSIGNMENT-064743e5-459e-5a10-895f-a3f94ea5d0bb-attr-2-key" class="er entityLabel">FK</text></g><g transform="translate(29.10308837890625,569.046875 )" id="entity-FEATURE-c5968e13-4aec-583d-9352-b31e294dc382"><rect height="75.015625" width="133.93231201171875" y="0" x="0" class="er entityBox"></rect><text style="dominant-baseline: middle; text-anchor: middle; font-size: 12px;" transform="translate(66.96615600585938,13.5078125)" y="0" x="0" id="text-entity-FEATURE-c5968e13-4aec-583d-9352-b31e294dc382" class="er entityLabel">FEATURE</text><rect height="24" width="37.4693603515625" y="27.015625" x="0" class="er attributeBoxOdd"></rect><text style="dominant-baseline: middle; font-size: 10.2px;" transform="translate(5,39.015625)" y="0" x="0" id="text-entity-FEATURE-c5968e13-4aec-583d-9352-b31e294dc382-attr-1-type" class="er entityLabel">string</text><rect height="24" width="73.33453369140625" y="27.015625" x="37.4693603515625" class="er attributeBoxOdd"></rect><text style="dominant-baseline: middle; font-size: 10.2px;" transform="translate(42.4693603515625,39.015625)" y="0" x="0" id="text-entity-FEATURE-c5968e13-4aec-583d-9352-b31e294dc382-attr-1-name" class="er entityLabel">featureName</text><rect height="24" width="23.12841796875" y="27.015625" x="110.80389404296875" class="er attributeBoxOdd"></rect><text style="dominant-baseline: middle; font-size: 10.2px;" transform="translate(115.80389404296875,39.015625)" y="0" x="0" id="text-entity-FEATURE-c5968e13-4aec-583d-9352-b31e294dc382-attr-1-key" class="er entityLabel">PK</text><rect height="24" width="37.4693603515625" y="51.015625" x="0" class="er attributeBoxEven"></rect><text style="dominant-baseline: middle; font-size: 10.2px;" transform="translate(5,63.015625)" y="0" x="0" id="text-entity-FEATURE-c5968e13-4aec-583d-9352-b31e294dc382-attr-2-type" class="er entityLabel">string</text><rect height="24" width="73.33453369140625" y="51.015625" x="37.4693603515625" class="er attributeBoxEven"></rect><text style="dominant-baseline: middle; font-size: 10.2px;" transform="translate(42.4693603515625,63.015625)" y="0" x="0" id="text-entity-FEATURE-c5968e13-4aec-583d-9352-b31e294dc382-attr-2-name" class="er entityLabel">description</text><rect height="24" width="23.12841796875" y="51.015625" x="110.80389404296875" class="er attributeBoxEven"></rect><text style="dominant-baseline: middle; font-size: 10.2px;" transform="translate(115.80389404296875,63.015625)" y="0" x="0" id="text-entity-FEATURE-c5968e13-4aec-583d-9352-b31e294dc382-attr-2-key" class="er entityLabel"></text></g><rect height="17.015625" width="20.02734375" y="160.50819396972656" x="217.12832641601562" class="er relationshipLabelBox"></rect><text style="text-anchor: middle; dominant-baseline: middle; font-size: 12px;" y="169.01600646972656" x="227.14199829101562" id="rel485" class="er relationshipLabel">has</text><rect height="17.015625" width="41.244140625" y="325.20965576171875" x="97.10211944580078" class="er relationshipLabelBox"></rect><text style="text-anchor: middle; dominant-baseline: middle; font-size: 12px;" y="333.71746826171875" x="117.72418975830078" id="rel486" class="er relationshipLabel">defines</text><rect height="17.015625" width="103.693359375" y="325.20965576171875" x="284.713134765625" class="er relationshipLabelBox"></rect><text style="text-anchor: middle; dominant-baseline: middle; font-size: 12px;" y="333.71746826171875" x="336.559814453125" id="rel487" class="er relationshipLabel">determines access</text><rect height="17.015625" width="99.546875" y="510.5391845703125" x="46.295562744140625" class="er relationshipLabelBox"></rect><text style="text-anchor: middle; dominant-baseline: middle; font-size: 12px;" y="519.0469970703125" x="96.06900024414062" id="rel488" class="er relationshipLabel">controls access to</text></svg>